<svg xmlns="http://www.w3.org/2000/svg" viewBox="0 0 32 32">
  <defs>
    <linearGradient id="gold" x1="0%" y1="0%" x2="100%" y2="100%">
      <stop offset="0%" style="stop-color:#F6E27A"/>
      <stop offset="50%" style="stop-color:#C9A84C"/>
      <stop offset="100%" style="stop-color:#8B6914"/>
    </linearGradient>
  </defs>
  <circle cx="16" cy="16" r="15" fill="#0A0A0A" stroke="url(#gold)" stroke-width="1.5"/>
  <path d="M16 6 C16 6, 10 12, 10 18 C10 22, 12.5 25, 16 25 C19.5 25, 22 22, 22 18 C22 12, 16 6, 16 6Z" fill="url(#gold)" opacity="0.9"/>
  <path d="M16 10 C16 10, 13 14, 13 18 C13 20.5, 14.5 22, 16 22 C17.5 22, 19 20.5, 19 18 C19 14, 16 10, 16 10Z" fill="#0A0A0A" opacity="0.4"/>
  <line x1="16" y1="8" x2="16" y2="24" stroke="#0A0A0A" stroke-width="0.5" opacity="0.3"/>
</svg>